<mxfile host="app.diagrams.net" modified="2022-03-30T06:52:27.465Z" agent="5.0 (Windows NT 10.0; Win64; x64) AppleWebKit/537.36 (KHTML, like Gecko) Chrome/99.0.4844.84 Safari/537.36" etag="2VO8Lg90I0NHEVUB-SOz" version="17.2.5" type="github">
  <diagram id="bCk3VSjHGXYge5IZA2PI" name="Page-1">
    <mxGraphModel dx="1483" dy="794" grid="1" gridSize="10" guides="1" tooltips="1" connect="1" arrows="1" fold="1" page="1" pageScale="1" pageWidth="827" pageHeight="1169" math="0" shadow="0">
      <root>
        <mxCell id="0" />
        <mxCell id="1" parent="0" />
        <mxCell id="R2ZKFFX12WTavuNcH5HW-38" value="" style="rounded=1;whiteSpace=wrap;html=1;" parent="1" vertex="1">
          <mxGeometry x="80" y="930" width="600" height="270" as="geometry" />
        </mxCell>
        <mxCell id="n_DndJqulcgYL1iPlfuT-1" value="" style="whiteSpace=wrap;html=1;aspect=fixed;" parent="1" vertex="1">
          <mxGeometry x="220" y="200" width="90" height="90" as="geometry" />
        </mxCell>
        <mxCell id="R2ZKFFX12WTavuNcH5HW-4" value="0" style="rounded=1;whiteSpace=wrap;html=1;fillColor=#FF8B6E;" parent="1" vertex="1">
          <mxGeometry x="100" y="990" width="100" height="30" as="geometry" />
        </mxCell>
        <mxCell id="R2ZKFFX12WTavuNcH5HW-5" value="1" style="rounded=1;whiteSpace=wrap;html=1;" parent="1" vertex="1">
          <mxGeometry x="100" y="1020" width="100" height="30" as="geometry" />
        </mxCell>
        <mxCell id="R2ZKFFX12WTavuNcH5HW-6" value="令狐冲" style="rounded=1;whiteSpace=wrap;html=1;" parent="1" vertex="1">
          <mxGeometry x="100" y="1050" width="100" height="30" as="geometry" />
        </mxCell>
        <mxCell id="R2ZKFFX12WTavuNcH5HW-7" value="16" style="rounded=1;whiteSpace=wrap;html=1;" parent="1" vertex="1">
          <mxGeometry x="100" y="1080" width="100" height="30" as="geometry" />
        </mxCell>
        <mxCell id="R2ZKFFX12WTavuNcH5HW-16" value="1" style="rounded=1;whiteSpace=wrap;html=1;" parent="1" vertex="1">
          <mxGeometry x="100" y="1110" width="100" height="30" as="geometry" />
        </mxCell>
        <mxCell id="R2ZKFFX12WTavuNcH5HW-17" value="..." style="rounded=1;whiteSpace=wrap;html=1;" parent="1" vertex="1">
          <mxGeometry x="100" y="1140" width="100" height="30" as="geometry" />
        </mxCell>
        <mxCell id="R2ZKFFX12WTavuNcH5HW-18" value="0" style="rounded=1;whiteSpace=wrap;html=1;fillColor=#FF8B6E;" parent="1" vertex="1">
          <mxGeometry x="250" y="990" width="100" height="30" as="geometry" />
        </mxCell>
        <mxCell id="R2ZKFFX12WTavuNcH5HW-19" value="2" style="rounded=1;whiteSpace=wrap;html=1;" parent="1" vertex="1">
          <mxGeometry x="250" y="1020" width="100" height="30" as="geometry" />
        </mxCell>
        <mxCell id="R2ZKFFX12WTavuNcH5HW-20" value="任盈盈" style="rounded=1;whiteSpace=wrap;html=1;" parent="1" vertex="1">
          <mxGeometry x="250" y="1050" width="100" height="30" as="geometry" />
        </mxCell>
        <mxCell id="R2ZKFFX12WTavuNcH5HW-21" value="15" style="rounded=1;whiteSpace=wrap;html=1;" parent="1" vertex="1">
          <mxGeometry x="250" y="1080" width="100" height="30" as="geometry" />
        </mxCell>
        <mxCell id="R2ZKFFX12WTavuNcH5HW-22" value="0" style="rounded=1;whiteSpace=wrap;html=1;" parent="1" vertex="1">
          <mxGeometry x="250" y="1110" width="100" height="30" as="geometry" />
        </mxCell>
        <mxCell id="R2ZKFFX12WTavuNcH5HW-23" value="..." style="rounded=1;whiteSpace=wrap;html=1;" parent="1" vertex="1">
          <mxGeometry x="250" y="1140" width="100" height="30" as="geometry" />
        </mxCell>
        <mxCell id="R2ZKFFX12WTavuNcH5HW-24" value="0" style="rounded=1;whiteSpace=wrap;html=1;fillColor=#FF8B6E;" parent="1" vertex="1">
          <mxGeometry x="400" y="990" width="100" height="30" as="geometry" />
        </mxCell>
        <mxCell id="R2ZKFFX12WTavuNcH5HW-25" value="4" style="rounded=1;whiteSpace=wrap;html=1;" parent="1" vertex="1">
          <mxGeometry x="400" y="1020" width="100" height="30" as="geometry" />
        </mxCell>
        <mxCell id="R2ZKFFX12WTavuNcH5HW-26" value="任我行" style="rounded=1;whiteSpace=wrap;html=1;" parent="1" vertex="1">
          <mxGeometry x="400" y="1050" width="100" height="30" as="geometry" />
        </mxCell>
        <mxCell id="R2ZKFFX12WTavuNcH5HW-27" value="50" style="rounded=1;whiteSpace=wrap;html=1;" parent="1" vertex="1">
          <mxGeometry x="400" y="1080" width="100" height="30" as="geometry" />
        </mxCell>
        <mxCell id="R2ZKFFX12WTavuNcH5HW-28" value="1" style="rounded=1;whiteSpace=wrap;html=1;" parent="1" vertex="1">
          <mxGeometry x="400" y="1110" width="100" height="30" as="geometry" />
        </mxCell>
        <mxCell id="R2ZKFFX12WTavuNcH5HW-29" value="..." style="rounded=1;whiteSpace=wrap;html=1;" parent="1" vertex="1">
          <mxGeometry x="400" y="1140" width="100" height="30" as="geometry" />
        </mxCell>
        <mxCell id="R2ZKFFX12WTavuNcH5HW-30" value="0" style="rounded=1;whiteSpace=wrap;html=1;fillColor=#FF8B6E;" parent="1" vertex="1">
          <mxGeometry x="560" y="990" width="100" height="30" as="geometry" />
        </mxCell>
        <mxCell id="R2ZKFFX12WTavuNcH5HW-31" value="5" style="rounded=1;whiteSpace=wrap;html=1;" parent="1" vertex="1">
          <mxGeometry x="560" y="1020" width="100" height="30" as="geometry" />
        </mxCell>
        <mxCell id="R2ZKFFX12WTavuNcH5HW-32" value="任我行" style="rounded=1;whiteSpace=wrap;html=1;" parent="1" vertex="1">
          <mxGeometry x="560" y="1050" width="100" height="30" as="geometry" />
        </mxCell>
        <mxCell id="R2ZKFFX12WTavuNcH5HW-33" value="50" style="rounded=1;whiteSpace=wrap;html=1;" parent="1" vertex="1">
          <mxGeometry x="560" y="1080" width="100" height="30" as="geometry" />
        </mxCell>
        <mxCell id="R2ZKFFX12WTavuNcH5HW-34" value="1" style="rounded=1;whiteSpace=wrap;html=1;" parent="1" vertex="1">
          <mxGeometry x="560" y="1110" width="100" height="30" as="geometry" />
        </mxCell>
        <mxCell id="R2ZKFFX12WTavuNcH5HW-35" value="..." style="rounded=1;whiteSpace=wrap;html=1;" parent="1" vertex="1">
          <mxGeometry x="560" y="1140" width="100" height="30" as="geometry" />
        </mxCell>
        <mxCell id="R2ZKFFX12WTavuNcH5HW-39" value="&lt;font style=&quot;font-size: 24px&quot;&gt;PAGE 1&lt;/font&gt;" style="rounded=1;whiteSpace=wrap;html=1;fillColor=#FF1900;" parent="1" vertex="1">
          <mxGeometry x="100" y="940" width="560" height="40" as="geometry" />
        </mxCell>
        <mxCell id="YxF6WoEmrUpVOarDnOtX-53" value="" style="whiteSpace=wrap;html=1;aspect=fixed;fillColor=#FF1900;" vertex="1" parent="1">
          <mxGeometry x="950" y="1040" width="80" height="80" as="geometry" />
        </mxCell>
        <mxCell id="YxF6WoEmrUpVOarDnOtX-54" value="" style="rounded=1;whiteSpace=wrap;html=1;" vertex="1" parent="1">
          <mxGeometry x="890" y="930" width="720" height="270" as="geometry" />
        </mxCell>
        <mxCell id="YxF6WoEmrUpVOarDnOtX-55" value="0" style="rounded=1;whiteSpace=wrap;html=1;fillColor=#FF8B6E;" vertex="1" parent="1">
          <mxGeometry x="950" y="990" width="100" height="30" as="geometry" />
        </mxCell>
        <mxCell id="YxF6WoEmrUpVOarDnOtX-56" value="1" style="rounded=1;whiteSpace=wrap;html=1;" vertex="1" parent="1">
          <mxGeometry x="950" y="1020" width="100" height="30" as="geometry" />
        </mxCell>
        <mxCell id="YxF6WoEmrUpVOarDnOtX-57" value="令狐冲" style="rounded=1;whiteSpace=wrap;html=1;" vertex="1" parent="1">
          <mxGeometry x="950" y="1050" width="100" height="30" as="geometry" />
        </mxCell>
        <mxCell id="YxF6WoEmrUpVOarDnOtX-58" value="16" style="rounded=1;whiteSpace=wrap;html=1;" vertex="1" parent="1">
          <mxGeometry x="950" y="1080" width="100" height="30" as="geometry" />
        </mxCell>
        <mxCell id="YxF6WoEmrUpVOarDnOtX-59" value="1" style="rounded=1;whiteSpace=wrap;html=1;" vertex="1" parent="1">
          <mxGeometry x="950" y="1110" width="100" height="30" as="geometry" />
        </mxCell>
        <mxCell id="YxF6WoEmrUpVOarDnOtX-60" value="..." style="rounded=1;whiteSpace=wrap;html=1;" vertex="1" parent="1">
          <mxGeometry x="950" y="1140" width="100" height="30" as="geometry" />
        </mxCell>
        <mxCell id="YxF6WoEmrUpVOarDnOtX-61" value="0" style="rounded=1;whiteSpace=wrap;html=1;fillColor=#FF8B6E;" vertex="1" parent="1">
          <mxGeometry x="1100" y="990" width="100" height="30" as="geometry" />
        </mxCell>
        <mxCell id="YxF6WoEmrUpVOarDnOtX-62" value="2" style="rounded=1;whiteSpace=wrap;html=1;" vertex="1" parent="1">
          <mxGeometry x="1100" y="1020" width="100" height="30" as="geometry" />
        </mxCell>
        <mxCell id="YxF6WoEmrUpVOarDnOtX-63" value="任盈盈" style="rounded=1;whiteSpace=wrap;html=1;" vertex="1" parent="1">
          <mxGeometry x="1100" y="1050" width="100" height="30" as="geometry" />
        </mxCell>
        <mxCell id="YxF6WoEmrUpVOarDnOtX-64" value="15" style="rounded=1;whiteSpace=wrap;html=1;" vertex="1" parent="1">
          <mxGeometry x="1100" y="1080" width="100" height="30" as="geometry" />
        </mxCell>
        <mxCell id="YxF6WoEmrUpVOarDnOtX-65" value="0" style="rounded=1;whiteSpace=wrap;html=1;" vertex="1" parent="1">
          <mxGeometry x="1100" y="1110" width="100" height="30" as="geometry" />
        </mxCell>
        <mxCell id="YxF6WoEmrUpVOarDnOtX-66" value="..." style="rounded=1;whiteSpace=wrap;html=1;" vertex="1" parent="1">
          <mxGeometry x="1100" y="1140" width="100" height="30" as="geometry" />
        </mxCell>
        <mxCell id="YxF6WoEmrUpVOarDnOtX-67" value="0" style="rounded=1;whiteSpace=wrap;html=1;fillColor=#FF8B6E;" vertex="1" parent="1">
          <mxGeometry x="1250" y="990" width="100" height="30" as="geometry" />
        </mxCell>
        <mxCell id="YxF6WoEmrUpVOarDnOtX-68" value="4" style="rounded=1;whiteSpace=wrap;html=1;" vertex="1" parent="1">
          <mxGeometry x="1250" y="1020" width="100" height="30" as="geometry" />
        </mxCell>
        <mxCell id="YxF6WoEmrUpVOarDnOtX-69" value="任我行" style="rounded=1;whiteSpace=wrap;html=1;" vertex="1" parent="1">
          <mxGeometry x="1250" y="1050" width="100" height="30" as="geometry" />
        </mxCell>
        <mxCell id="YxF6WoEmrUpVOarDnOtX-70" value="50" style="rounded=1;whiteSpace=wrap;html=1;" vertex="1" parent="1">
          <mxGeometry x="1250" y="1080" width="100" height="30" as="geometry" />
        </mxCell>
        <mxCell id="YxF6WoEmrUpVOarDnOtX-71" value="1" style="rounded=1;whiteSpace=wrap;html=1;" vertex="1" parent="1">
          <mxGeometry x="1250" y="1110" width="100" height="30" as="geometry" />
        </mxCell>
        <mxCell id="YxF6WoEmrUpVOarDnOtX-72" value="..." style="rounded=1;whiteSpace=wrap;html=1;" vertex="1" parent="1">
          <mxGeometry x="1250" y="1140" width="100" height="30" as="geometry" />
        </mxCell>
        <mxCell id="YxF6WoEmrUpVOarDnOtX-73" value="0" style="rounded=1;whiteSpace=wrap;html=1;fillColor=#FF8B6E;" vertex="1" parent="1">
          <mxGeometry x="1410" y="990" width="100" height="30" as="geometry" />
        </mxCell>
        <mxCell id="YxF6WoEmrUpVOarDnOtX-74" value="5" style="rounded=1;whiteSpace=wrap;html=1;" vertex="1" parent="1">
          <mxGeometry x="1410" y="1020" width="100" height="30" as="geometry" />
        </mxCell>
        <mxCell id="YxF6WoEmrUpVOarDnOtX-75" value="任我行" style="rounded=1;whiteSpace=wrap;html=1;" vertex="1" parent="1">
          <mxGeometry x="1410" y="1050" width="100" height="30" as="geometry" />
        </mxCell>
        <mxCell id="YxF6WoEmrUpVOarDnOtX-76" value="50" style="rounded=1;whiteSpace=wrap;html=1;" vertex="1" parent="1">
          <mxGeometry x="1410" y="1080" width="100" height="30" as="geometry" />
        </mxCell>
        <mxCell id="YxF6WoEmrUpVOarDnOtX-77" value="1" style="rounded=1;whiteSpace=wrap;html=1;" vertex="1" parent="1">
          <mxGeometry x="1410" y="1110" width="100" height="30" as="geometry" />
        </mxCell>
        <mxCell id="YxF6WoEmrUpVOarDnOtX-78" value="..." style="rounded=1;whiteSpace=wrap;html=1;" vertex="1" parent="1">
          <mxGeometry x="1410" y="1140" width="100" height="30" as="geometry" />
        </mxCell>
        <mxCell id="YxF6WoEmrUpVOarDnOtX-79" value="&lt;font style=&quot;font-size: 24px&quot;&gt;PAGE 1&lt;/font&gt;" style="rounded=1;whiteSpace=wrap;html=1;fillColor=#FF1900;" vertex="1" parent="1">
          <mxGeometry x="950" y="940" width="560" height="40" as="geometry" />
        </mxCell>
      </root>
    </mxGraphModel>
  </diagram>
</mxfile>
